<?xml version="1.0" encoding="UTF-8"?>
<svg width="64pt" height="64pt" viewBox="0 0 64 64" version="1.1">
<g id="surface1">
<path style=" stroke:none;fill-rule:nonzero;fill:rgb(33%,37%,41%);fill-opacity:1;" d="M 32.003906 44.316406 C 35.390625 44.316406 38.289062 43.109375 40.699219 40.699219 C 43.109375 38.289062 44.316406 35.390625 44.316406 32.003906 L 44.316406 12.308594 C 44.316406 8.925781 43.109375 6.027344 40.699219 3.617188 C 38.289062 1.207031 35.390625 0 32.003906 0 C 28.621094 0 25.722656 1.207031 23.3125 3.617188 C 20.902344 6.027344 19.695312 8.925781 19.695312 12.308594 L 19.695312 32.003906 C 19.695312 35.390625 20.902344 38.289062 23.3125 40.699219 C 25.722656 43.109375 28.621094 44.316406 32.003906 44.316406 Z M 32.003906 44.316406 "/>
<path style=" stroke:none;fill-rule:nonzero;fill:rgb(33%,37%,41%);fill-opacity:1;" d="M 53.433594 25.351562 C 52.945312 24.863281 52.367188 24.621094 51.699219 24.621094 C 51.035156 24.621094 50.457031 24.863281 49.96875 25.351562 C 49.484375 25.839844 49.238281 26.414062 49.238281 27.082031 L 49.238281 32.003906 C 49.238281 36.75 47.550781 40.808594 44.179688 44.179688 C 40.808594 47.554688 36.75 49.238281 32.003906 49.238281 C 27.261719 49.238281 23.203125 47.554688 19.828125 44.179688 C 16.457031 40.808594 14.773438 36.75 14.773438 32.003906 L 14.773438 27.082031 C 14.773438 26.414062 14.527344 25.839844 14.039062 25.351562 C 13.554688 24.863281 12.976562 24.621094 12.308594 24.621094 C 11.644531 24.621094 11.066406 24.863281 10.578125 25.351562 C 10.089844 25.839844 9.847656 26.414062 9.847656 27.082031 L 9.847656 32.003906 C 9.847656 37.671875 11.738281 42.605469 15.523438 46.796875 C 19.304688 50.988281 23.976562 53.394531 29.542969 54.007812 L 29.542969 59.085938 L 19.695312 59.085938 C 19.027344 59.085938 18.453125 59.332031 17.964844 59.816406 C 17.476562 60.304688 17.234375 60.882812 17.234375 61.550781 C 17.234375 62.214844 17.476562 62.792969 17.964844 63.28125 C 18.453125 63.765625 19.027344 64.011719 19.695312 64.011719 L 44.316406 64.011719 C 44.980469 64.011719 45.558594 63.765625 46.046875 63.28125 C 46.535156 62.792969 46.777344 62.214844 46.777344 61.550781 C 46.777344 60.882812 46.535156 60.304688 46.046875 59.816406 C 45.558594 59.332031 44.980469 59.085938 44.316406 59.085938 L 34.46875 59.085938 L 34.46875 54.007812 C 40.03125 53.394531 44.707031 50.988281 48.488281 46.796875 C 52.273438 42.605469 54.164062 37.671875 54.164062 32.003906 L 54.164062 27.082031 C 54.164062 26.414062 53.917969 25.839844 53.433594 25.351562 Z M 53.433594 25.351562 "/>
</g>
</svg>
